<svg width="64" height="64" viewBox="0 0 64 64" fill="none" xmlns="http://www.w3.org/2000/svg">
<rect width="64" height="64" fill="white"/>
<path d="M49.3234 40.0015C49.3415 40.0703 49.308 40.152 49.3802 40.2055C49.3515 40.3054 49.3053 40.3996 49.2435 40.4835C49.1791 40.4988 49.143 40.4835 49.1713 40.4121C49.1971 40.2674 49.2486 40.1284 49.3234 40.0015Z" fill="#545454"/>
<path d="M50.512 50.7624C50.5842 50.7369 50.5816 50.6731 50.5919 50.6144C50.6648 50.6853 50.7189 50.7729 50.7492 50.8695C50.7589 50.8843 50.7626 50.9022 50.7598 50.9196C50.7569 50.937 50.7476 50.9528 50.7337 50.9639C50.6402 50.9215 50.5625 50.851 50.512 50.7624V50.7624Z" fill="#02D301"/>
<path d="M49.1713 40.4121L49.2435 40.4835C49.2255 40.5371 49.1894 40.6264 49.1481 40.6009C49.0553 40.5447 49.1249 40.4708 49.1713 40.4121Z" fill="#545454"/>
<path d="M50.7337 50.969L50.7492 50.8746C50.7905 50.9001 50.8162 50.9384 50.7982 50.9792C50.7801 51.02 50.7518 51.0021 50.7337 50.969Z" fill="#02D301"/>
<path d="M41.2149 49.0663C39.721 50.0607 38.0759 50.8124 36.3421 51.2929C34.502 51.8269 32.586 52.0595 30.67 51.9816C25.6965 51.7546 21.3883 49.9411 17.8355 46.4978C14.788 43.5646 12.9859 39.9734 12.2743 35.8389C11.6441 32.1224 12.1052 28.3051 13.6028 24.8401C15.1004 21.3752 17.5717 18.4081 20.7231 16.2912C23.1458 14.6286 25.9182 13.5315 28.8317 13.0826C30.7863 12.7821 32.7753 12.7709 34.7332 13.0494C38.7246 13.576 42.4503 15.322 45.3904 18.044C48.3304 20.7659 50.3381 24.328 51.1334 28.2331C51.3759 29.4775 51.4891 30.7433 51.4711 32.0105C51.4666 33.9192 51.1479 35.8144 50.5275 37.6218C50.228 38.5164 49.8447 39.3814 49.3828 40.2055C49.2307 40.1749 49.3028 40.0805 49.326 40.0015C49.6175 39.0568 49.8492 38.0951 50.0196 37.1219C50.5048 34.1947 50.2668 31.1949 49.326 28.3785C48.087 24.5679 45.5702 21.2899 42.1921 19.0867C40.0063 17.6344 37.5044 16.7141 34.8905 16.4009C31.5105 15.975 28.2541 16.4009 25.1809 17.9007C21.4251 19.6722 18.4566 22.745 16.8377 26.5369C16.054 28.3208 15.6049 30.2308 15.5125 32.1737C15.2908 36.4715 16.4768 40.3356 19.1453 43.733C21.6902 46.997 25.3271 49.2575 29.404 50.1094C33.2998 50.9817 37.082 50.5736 40.7637 49.0892L41.0602 48.9795C41.0868 48.9612 41.1154 48.9458 41.1453 48.9336C41.163 48.92 41.1848 48.9128 41.2072 48.9132C41.2768 48.875 41.3335 48.8622 41.3438 48.9668C41.33 48.9817 41.3121 48.9923 41.2923 48.9974C41.2589 49.0102 41.2314 49.0347 41.2149 49.0663V49.0663Z" fill="#545454"/>
<path d="M50.512 50.7624L46.4229 47.0717L38.9332 40.2922C38.8739 40.2361 38.812 40.1851 38.7114 40.1009L35.401 45.8193C35.3056 45.7097 35.2386 45.6281 35.1664 45.5515L25.8847 35.7445L25.8125 35.668C25.5392 35.3645 25.5753 35.4589 25.7223 35.1349C26.6144 33.1897 27.5082 31.2436 28.4037 29.2967L29.0147 27.9729H29.0869L35.6923 36.0838C36.2724 34.9666 36.7984 33.8622 37.345 32.768C37.8916 31.6738 38.4278 30.5796 38.9693 29.4854C39.054 29.5417 39.1175 29.6242 39.1497 29.7201C42.9397 36.6321 46.7289 43.5459 50.5172 50.4614C50.5455 50.5124 50.5687 50.566 50.5919 50.617C50.6151 50.668 50.6383 50.7649 50.512 50.7624Z" fill="#02D301"/>
<path d="M41.3438 48.9872C41.3103 48.9413 41.2561 48.9464 41.2072 48.9336C41.2879 48.8644 41.3843 48.8154 41.4882 48.7908C41.5629 48.7653 41.5758 48.7908 41.5604 48.8597C41.4971 48.9155 41.4236 48.9588 41.3438 48.9872V48.9872Z" fill="#545454"/>
<path d="M41.6248 48.7143C41.6609 48.6913 41.697 48.6658 41.7357 48.6454C41.7744 48.625 41.8053 48.6199 41.8156 48.6454C41.8259 48.6709 41.7795 48.7117 41.7331 48.7194C41.7282 48.7263 41.722 48.7321 41.7148 48.7366C41.7076 48.7412 41.6996 48.7442 41.6912 48.7456C41.6828 48.7471 41.6742 48.7468 41.6659 48.7449C41.6576 48.7431 41.6498 48.7396 41.6429 48.7347C41.6349 48.7298 41.6286 48.7227 41.6248 48.7143V48.7143Z" fill="#545454"/>
<path d="M41.6248 48.7143L41.7331 48.7296C41.6915 48.7906 41.6308 48.8363 41.5604 48.8597L41.4882 48.7908C41.5217 48.7485 41.5708 48.721 41.6248 48.7143V48.7143Z" fill="#545454"/>
<path d="M41.1453 48.954C41.1378 48.9696 41.1255 48.9824 41.1102 48.9906C41.095 48.9989 41.0774 49.0021 41.0602 48.9999C41.0656 48.9828 41.0774 48.9685 41.0933 48.9599C41.1092 48.9513 41.1278 48.9492 41.1453 48.954V48.954Z" fill="#545454"/>
<path d="M41.2149 49.0662C41.2186 49.0493 41.2286 49.0344 41.243 49.0245C41.2573 49.0146 41.2749 49.0104 41.2922 49.0127C41.2871 49.0288 41.2768 49.0428 41.2628 49.0525C41.2488 49.0622 41.2319 49.067 41.2149 49.0662V49.0662Z" fill="#545454"/>
</svg>
